<svg id="visual" viewBox="0 0 675 900" width="675" height="900" xmlns="http://www.w3.org/2000/svg" xmlns:xlink="http://www.w3.org/1999/xlink" version="1.1"><rect x="0" y="0" width="675" height="900" fill="#001220"></rect><defs><linearGradient id="grad1_0" x1="0%" y1="0%" x2="100%" y2="100%"><stop offset="30%" stop-color="#fbae3c" stop-opacity="1"></stop><stop offset="70%" stop-color="#fbae3c" stop-opacity="1"></stop></linearGradient></defs><defs><linearGradient id="grad1_1" x1="0%" y1="0%" x2="100%" y2="100%"><stop offset="30%" stop-color="#fbae3c" stop-opacity="1"></stop><stop offset="70%" stop-color="#f48350" stop-opacity="1"></stop></linearGradient></defs><defs><linearGradient id="grad1_2" x1="0%" y1="0%" x2="100%" y2="100%"><stop offset="30%" stop-color="#d96162" stop-opacity="1"></stop><stop offset="70%" stop-color="#f48350" stop-opacity="1"></stop></linearGradient></defs><defs><linearGradient id="grad1_3" x1="0%" y1="0%" x2="100%" y2="100%"><stop offset="30%" stop-color="#d96162" stop-opacity="1"></stop><stop offset="70%" stop-color="#af4b6d" stop-opacity="1"></stop></linearGradient></defs><defs><linearGradient id="grad1_4" x1="0%" y1="0%" x2="100%" y2="100%"><stop offset="30%" stop-color="#7c3e6b" stop-opacity="1"></stop><stop offset="70%" stop-color="#af4b6d" stop-opacity="1"></stop></linearGradient></defs><defs><linearGradient id="grad1_5" x1="0%" y1="0%" x2="100%" y2="100%"><stop offset="30%" stop-color="#7c3e6b" stop-opacity="1"></stop><stop offset="70%" stop-color="#49335c" stop-opacity="1"></stop></linearGradient></defs><defs><linearGradient id="grad1_6" x1="0%" y1="0%" x2="100%" y2="100%"><stop offset="30%" stop-color="#1d2540" stop-opacity="1"></stop><stop offset="70%" stop-color="#49335c" stop-opacity="1"></stop></linearGradient></defs><defs><linearGradient id="grad1_7" x1="0%" y1="0%" x2="100%" y2="100%"><stop offset="30%" stop-color="#1d2540" stop-opacity="1"></stop><stop offset="70%" stop-color="#001220" stop-opacity="1"></stop></linearGradient></defs><defs><linearGradient id="grad2_0" x1="0%" y1="0%" x2="100%" y2="100%"><stop offset="30%" stop-color="#fbae3c" stop-opacity="1"></stop><stop offset="70%" stop-color="#fbae3c" stop-opacity="1"></stop></linearGradient></defs><defs><linearGradient id="grad2_1" x1="0%" y1="0%" x2="100%" y2="100%"><stop offset="30%" stop-color="#f48350" stop-opacity="1"></stop><stop offset="70%" stop-color="#fbae3c" stop-opacity="1"></stop></linearGradient></defs><defs><linearGradient id="grad2_2" x1="0%" y1="0%" x2="100%" y2="100%"><stop offset="30%" stop-color="#f48350" stop-opacity="1"></stop><stop offset="70%" stop-color="#d96162" stop-opacity="1"></stop></linearGradient></defs><defs><linearGradient id="grad2_3" x1="0%" y1="0%" x2="100%" y2="100%"><stop offset="30%" stop-color="#af4b6d" stop-opacity="1"></stop><stop offset="70%" stop-color="#d96162" stop-opacity="1"></stop></linearGradient></defs><defs><linearGradient id="grad2_4" x1="0%" y1="0%" x2="100%" y2="100%"><stop offset="30%" stop-color="#af4b6d" stop-opacity="1"></stop><stop offset="70%" stop-color="#7c3e6b" stop-opacity="1"></stop></linearGradient></defs><defs><linearGradient id="grad2_5" x1="0%" y1="0%" x2="100%" y2="100%"><stop offset="30%" stop-color="#49335c" stop-opacity="1"></stop><stop offset="70%" stop-color="#7c3e6b" stop-opacity="1"></stop></linearGradient></defs><defs><linearGradient id="grad2_6" x1="0%" y1="0%" x2="100%" y2="100%"><stop offset="30%" stop-color="#49335c" stop-opacity="1"></stop><stop offset="70%" stop-color="#1d2540" stop-opacity="1"></stop></linearGradient></defs><defs><linearGradient id="grad2_7" x1="0%" y1="0%" x2="100%" y2="100%"><stop offset="30%" stop-color="#001220" stop-opacity="1"></stop><stop offset="70%" stop-color="#1d2540" stop-opacity="1"></stop></linearGradient></defs><g transform="translate(675, 0)"><path d="M0 450C-60.1 439.8 -120.3 429.5 -166.1 401C-211.9 372.4 -243.4 325.5 -287.1 287.1C-330.8 248.6 -386.6 218.6 -415.7 172.2C-444.9 125.8 -447.5 62.9 -450 0L0 0Z" fill="#0c1c30"></path><path d="M0 393.8C-52.6 384.8 -105.2 375.8 -145.3 350.8C-185.4 325.9 -213 284.8 -251.2 251.2C-289.4 217.6 -338.2 191.3 -363.8 150.7C-389.3 110 -391.5 55 -393.7 0L0 0Z" fill="#312c4f"></path><path d="M0 337.5C-45.1 329.8 -90.2 322.1 -124.6 300.7C-158.9 279.3 -182.6 244.1 -215.3 215.3C-248.1 186.5 -289.9 164 -311.8 129.2C-333.7 94.3 -335.6 47.2 -337.5 0L0 0Z" fill="#623965"></path><path d="M0 281.3C-37.6 274.9 -75.2 268.5 -103.8 250.6C-132.4 232.8 -152.1 203.5 -179.4 179.4C-206.7 155.4 -241.6 136.7 -259.8 107.6C-278.1 78.6 -279.7 39.3 -281.2 0L0 0Z" fill="#96446e"></path><path d="M0 225C-30.1 219.9 -60.1 214.8 -83 200.5C-106 186.2 -121.7 162.8 -143.5 143.5C-165.4 124.3 -193.3 109.3 -207.9 86.1C-222.5 62.9 -223.7 31.4 -225 0L0 0Z" fill="#c55469"></path><path d="M0 168.8C-22.5 164.9 -45.1 161.1 -62.3 150.4C-79.5 139.7 -91.3 122.1 -107.7 107.7C-124 93.2 -145 82 -155.9 64.6C-166.8 47.2 -167.8 23.6 -168.7 0L0 0Z" fill="#e9705a"></path><path d="M0 112.5C-15 109.9 -30.1 107.4 -41.5 100.2C-53 93.1 -60.9 81.4 -71.8 71.8C-82.7 62.2 -96.6 54.7 -103.9 43.1C-111.2 31.4 -111.9 15.7 -112.5 0L0 0Z" fill="#fa9845"></path><path d="M0 56.3C-7.5 55 -15 53.7 -20.8 50.1C-26.5 46.6 -30.4 40.7 -35.9 35.9C-41.3 31.1 -48.3 27.3 -52 21.5C-55.6 15.7 -55.9 7.9 -56.2 0L0 0Z" fill="#fbae3c"></path></g><g transform="translate(0, 900)"><path d="M0 -450C52.9 -428.8 105.8 -407.7 161.1 -389C216.4 -370.3 274.2 -354 318.2 -318.2C362.2 -282.4 392.4 -227 412.1 -170.7C431.7 -114.4 440.9 -57.2 450 0L0 0Z" fill="#0c1c30"></path><path d="M0 -393.7C46.3 -375.2 92.6 -356.7 141 -340.3C189.4 -324 239.9 -309.8 278.4 -278.4C316.9 -247.1 343.3 -198.6 360.5 -149.3C377.8 -100.1 385.8 -50 393.8 0L0 0Z" fill="#312c4f"></path><path d="M0 -337.5C39.7 -321.6 79.3 -305.7 120.8 -291.7C162.3 -277.7 205.7 -265.5 238.6 -238.6C271.6 -211.8 294.3 -170.2 309 -128C323.8 -85.8 330.6 -42.9 337.5 0L0 0Z" fill="#623965"></path><path d="M0 -281.2C33.1 -268 66.1 -254.8 100.7 -243.1C135.3 -231.4 171.4 -221.3 198.9 -198.9C226.4 -176.5 245.2 -141.9 257.5 -106.7C269.8 -71.5 275.5 -35.7 281.3 0L0 0Z" fill="#96446e"></path><path d="M0 -225C26.4 -214.4 52.9 -203.8 80.6 -194.5C108.2 -185.1 137.1 -177 159.1 -159.1C181.1 -141.2 196.2 -113.5 206 -85.3C215.9 -57.2 220.4 -28.6 225 0L0 0Z" fill="#c55469"></path><path d="M0 -168.7C19.8 -160.8 39.7 -152.9 60.4 -145.9C81.2 -138.8 102.8 -132.8 119.3 -119.3C135.8 -105.9 147.1 -85.1 154.5 -64C161.9 -42.9 165.3 -21.4 168.8 0L0 0Z" fill="#e9705a"></path><path d="M0 -112.5C13.2 -107.2 26.4 -101.9 40.3 -97.2C54.1 -92.6 68.6 -88.5 79.5 -79.5C90.5 -70.6 98.1 -56.7 103 -42.7C107.9 -28.6 110.2 -14.3 112.5 0L0 0Z" fill="#fa9845"></path><path d="M0 -56.2C6.6 -53.6 13.2 -51 20.1 -48.6C27.1 -46.3 34.3 -44.3 39.8 -39.8C45.3 -35.3 49 -28.4 51.5 -21.3C54 -14.3 55.1 -7.1 56.3 0L0 0Z" fill="#fbae3c"></path></g></svg>